# xmcd
#
# Track frame offsets:
# 150
# 21161
# 49983
# 76929
# 100173
# 127472
# 152348
# 173891
# 192974
#
# Disc length: 2710 seconds
#
# Revision: 1
# Processed by: cddbd v1.5.1PL2 Copyright (c) Steve Scherf et al.
# Submitted via: CedeCatalogueitor 2.6.0.6 http://personales.ya.com/cdcatalogueitor
#
DISCID=710a9409
DTITLE=Nightwish - Angels Fall First 
DYEAR=1997
DGENRE=Operatic/Symphonic Power Metal
TTITLE0=Elvenpath
TTITLE1=Beauty and the Beast
TTITLE2=The Carpenter
TTITLE3=Astral Romance
TTITLE4=Angels Fall First
TTITLE5=Tutankhamen
TTITLE6=Nymphomaniac Fantasia
TTITLE7=Know Why the Nightingale Sings
TTITLE8=Lappi (Lapland)
EXTD=
EXTT0=
EXTT1=
EXTT2=
EXTT3=
EXTT4=
EXTT5=
EXTT6=
EXTT7=
EXTT8=
PLAYORDER=
